# xmcd
#
# Track frame offsets:
#	150
#	27912
#	43512
#	69837
#	90087
#	116787
#	133512
#	147012
#	179937
#	206337
#
# Disc length: 3032
#
# Revision: 3
# Processed by: cddbd v1.5.1PL0 Copyright (c) Steve Scherf et al.
# Submitted via: CDWizzard Release:4.35
# Normalized: r1:DSETVAR1,TSWAP
#
DISCID=840bd60a
DTITLE=Various Artist - T.S.O.P.
DYEAR=1900
DGENRE=
TTITLE0=O'Jays - Forever Mine
TTITLE1=Harold Melvin and Bluenotes - If You Don't Know Me By Now
TTITLE2=Intruders - I Wanna Know Your Name
TTITLE3=Lou Rawls - You'll Never Find A Love Like Mine
TTITLE4=Teddy Pendergrass - Turn Off The Lights
TTITLE5=O'Jays - Sunshine
TTITLE6=The Three Degrees - When Will I See You Again
TTITLE7=Ebonys - It's Forever
TTITLE8=Stylistics - Hurry Up This Way Again
TTITLE9=The Jones Girls - I Just Love The Man
EXTD=
EXTT0=
EXTT1=
EXTT2=
EXTT3=
EXTT4=
EXTT5=
EXTT6=
EXTT7=
EXTT8=
EXTT9=
PLAYORDER=
